<svg width="30" height="30" viewBox="0 0 30 30" fill="none" xmlns="http://www.w3.org/2000/svg">
<g clip-path="url(#clip0_1_791)">
<path d="M27.1757 24.8437C25.4264 21.8303 22.6264 19.5686 19.3125 18.4922C20.9009 17.5476 22.1353 16.1076 22.826 14.3935C23.5167 12.6793 23.6255 10.7858 23.1357 9.0038C22.6459 7.22181 21.5846 5.64991 20.1148 4.5296C18.645 3.40928 16.848 2.80252 15 2.80252C13.1519 2.80252 11.3549 3.40928 9.88511 4.5296C8.41532 5.64991 7.35399 7.22181 6.86419 9.0038C6.37439 10.7858 6.4832 12.6793 7.1739 14.3935C7.86461 16.1076 9.09901 17.5476 10.6875 18.4922C7.37351 19.5686 4.57348 21.8303 2.82418 24.8437C2.73829 24.985 2.69287 25.1472 2.69287 25.3125C2.69287 25.4778 2.73829 25.64 2.82418 25.7812C2.90431 25.9249 3.02172 26.0443 3.16403 26.1268C3.30635 26.2093 3.46829 26.2519 3.63277 26.25H26.3671C26.5316 26.2519 26.6936 26.2093 26.8359 26.1268C26.9782 26.0443 27.0956 25.9249 27.1757 25.7812C27.2616 25.64 27.307 25.4778 27.307 25.3125C27.307 25.1472 27.2616 24.985 27.1757 24.8437Z" fill="#666666"/>
</g>
<defs>
<clipPath id="clip0_1_791">
<rect width="30" height="30" fill="white"/>
</clipPath>
</defs>
</svg>
