<svg width="18" height="18" viewBox="0 0 18 18" fill="none" xmlns="http://www.w3.org/2000/svg">
<path fill-rule="evenodd" clip-rule="evenodd" d="M12.7732 7.14822C12.721 7.20061 12.6589 7.24217 12.5906 7.27052C12.5222 7.29888 12.449 7.31348 12.375 7.31348C12.301 7.31348 12.2277 7.29888 12.1594 7.27052C12.091 7.24217 12.029 7.20061 11.9767 7.14822L8.99997 4.17035L6.02322 7.14822C5.9176 7.25384 5.77434 7.31318 5.62497 7.31318C5.4756 7.31318 5.33234 7.25384 5.22672 7.14822C5.1211 7.0426 5.06176 6.89934 5.06176 6.74997C5.06176 6.6006 5.1211 6.45734 5.22672 6.35172L8.60172 2.97672C8.65397 2.92434 8.71605 2.88278 8.78438 2.85442C8.85272 2.82606 8.92598 2.81147 8.99997 2.81147C9.07396 2.81147 9.14722 2.82606 9.21556 2.85442C9.2839 2.88278 9.34597 2.92434 9.39822 2.97672L12.7732 6.35172C12.8256 6.40397 12.8672 6.46605 12.8955 6.53438C12.9239 6.60272 12.9385 6.67598 12.9385 6.74997C12.9385 6.82396 12.9239 6.89722 12.8955 6.96556C12.8672 7.0339 12.8256 7.09597 12.7732 7.14822Z" fill="white"/>
<path fill-rule="evenodd" clip-rule="evenodd" d="M9 15.1875C8.85082 15.1875 8.70774 15.1282 8.60225 15.0227C8.49676 14.9173 8.4375 14.7742 8.4375 14.625L8.4375 4.5C8.4375 4.35082 8.49676 4.20774 8.60225 4.10225C8.70774 3.99676 8.85081 3.9375 9 3.9375C9.14918 3.9375 9.29226 3.99676 9.39775 4.10225C9.50324 4.20774 9.5625 4.35082 9.5625 4.5L9.5625 14.625C9.5625 14.7742 9.50324 14.9173 9.39775 15.0227C9.29226 15.1282 9.14918 15.1875 9 15.1875Z" fill="white"/>
</svg>
