<svg width="24" height="24" viewBox="0 0 24 24" fill="none" xmlns="http://www.w3.org/2000/svg">
<g clip-path="url(#clip0_0_4)">
<path d="M11.9999 23.9998C12.7956 23.9998 13.5586 23.6837 14.1212 23.1211C14.6838 22.5585 14.9999 21.7955 14.9999 20.9998H8.99994C8.99994 21.7955 9.31601 22.5585 9.87861 23.1211C10.4412 23.6837 11.2043 23.9998 11.9999 23.9998Z" fill="white"/>
<path fill-rule="evenodd" clip-rule="evenodd" d="M12.0001 2.87691L10.8046 3.11841C9.44854 3.39471 8.22961 4.13106 7.35409 5.20283C6.47858 6.2746 6.00027 7.61596 6.00013 8.99987C6.00013 9.94186 5.79913 12.2953 5.31163 14.6128C5.07163 15.7633 4.74763 16.9618 4.31714 17.9998H19.683C19.2525 16.9618 18.93 15.7648 18.6885 14.6128C18.201 12.2953 18 9.94186 18 8.99987C17.9995 7.61621 17.5211 6.27521 16.6456 5.20375C15.7701 4.13229 14.5514 3.39616 13.1956 3.11991L12.0001 2.87541V2.87691ZM21.33 17.9998C21.6645 18.6703 22.0515 19.2013 22.5 19.4998H1.50016C1.94865 19.2013 2.33565 18.6703 2.67015 17.9998C4.02014 15.2998 4.50014 10.3199 4.50014 8.99987C4.50014 5.36989 7.08012 2.33992 10.5076 1.64842C10.4867 1.43985 10.5097 1.22921 10.5751 1.03008C10.6406 0.830956 10.7471 0.647761 10.8877 0.492315C11.0283 0.336869 11.2 0.212622 11.3916 0.127587C11.5832 0.0425528 11.7905 -0.00138113 12.0001 -0.00138113C12.2097 -0.00138113 12.417 0.0425528 12.6086 0.127587C12.8002 0.212622 12.9718 0.336869 13.1124 0.492315C13.2531 0.647761 13.3595 0.830956 13.425 1.03008C13.4905 1.22921 13.5135 1.43985 13.4926 1.64842C15.188 1.99327 16.7121 2.91345 17.8069 4.25315C18.9017 5.59285 19.4998 7.26974 19.5 8.99987C19.5 10.3199 19.98 15.2998 21.33 17.9998Z" fill="white"/>
<circle cx="18" cy="5.99992" r="4.28568" fill="#FFAB7B"/>
</g>
<defs>
<clipPath id="clip0_0_4">
<rect width="23.3333" height="23.3333" fill="white" transform="scale(1.02856)"/>
</clipPath>
</defs>
</svg>
