<svg width="330" height="400" viewBox="0 0 330 400" fill="none" xmlns="http://www.w3.org/2000/svg">
<path fill-rule="evenodd" clip-rule="evenodd" d="M218.043 59.699C223.695 53.428 227.521 45.7427 226.882 37.1312C225.04 12.3191 188.494 17.7775 181.385 30.3005C174.277 42.8235 175.121 74.5892 184.309 76.8274C187.973 77.72 195.778 75.5335 203.722 71.0081L198.736 104.348H228.178L218.043 59.699Z" fill="#B28B67"/>
<path fill-rule="evenodd" clip-rule="evenodd" d="M168.342 12.94C168.952 10.9146 170.592 9.18038 172.802 8.6659C173.338 8.5411 173.891 8.4907 174.443 8.51171C174.64 8.51917 174.696 8.57308 174.788 8.44235C174.857 8.34542 174.858 8.10862 174.887 7.99471C174.975 7.6405 175.084 7.29071 175.22 6.94998C175.682 5.78783 176.459 4.75932 177.396 3.8929C179.148 2.27201 181.516 1.15334 183.976 0.950957C185.322 0.840248 186.659 1.04697 187.931 1.46088C188.59 1.67514 189.229 1.94194 189.852 2.23691C190.039 2.32569 190.647 2.76053 190.835 2.73236C191.043 2.70129 191.46 2.21353 191.629 2.0911C193.716 0.577637 196.293 -0.0174072 198.893 0.00038655C201.828 0.0212726 204.653 0.15985 207.101 1.85049C207.619 2.20843 208.112 2.60033 208.582 3.01294C208.829 3.23017 209.069 3.45555 209.297 3.69029C209.435 3.83191 209.57 3.97674 209.699 4.12544C209.918 4.37785 209.883 4.46077 210.19 4.28465C211.368 3.60837 212.733 3.29207 214.107 3.45174C214.924 3.54661 215.718 3.77824 216.472 4.08311C216.729 4.18689 217.323 4.60087 217.597 4.6049C217.868 4.60886 218.454 4.22511 218.734 4.12757C220.244 3.6006 221.872 3.4707 223.46 3.7142C225.098 3.96547 226.706 4.58297 228.094 5.43629C228.761 5.84677 229.343 6.30156 229.811 6.91191C230.013 7.17543 230.196 7.45419 230.425 7.69852C230.559 7.84159 230.824 7.98839 230.896 8.16946C230.853 8.06103 232.687 7.39282 232.86 7.3501C233.782 7.12251 234.721 7.16865 235.623 7.44946C237.321 7.9775 238.781 9.16165 239.981 10.3757C240.598 10.9993 241.137 11.6886 241.595 12.423C241.814 12.7748 242.015 13.1366 242.198 13.5061C242.287 13.6851 242.346 13.9091 242.463 14.0703C242.615 14.2781 242.716 14.2821 242.99 14.3727C244.379 14.8327 245.646 15.6114 246.61 16.6636C247.586 17.7282 248.219 19.0391 248.484 20.4196C248.5 20.5009 248.509 20.8379 248.56 20.8819C248.629 20.9425 248.908 20.9157 249.014 20.9275C249.38 20.968 249.743 21.0284 250.102 21.1087C250.763 21.2565 251.406 21.4742 252.015 21.7588C254.388 22.8682 256.084 24.9482 256.915 27.2886C257.786 29.7448 257.77 32.5587 256.729 34.9691C256.561 35.3584 256.361 35.7363 256.126 36.0937C255.981 36.3132 255.935 36.3137 256.028 36.544C256.133 36.8001 256.324 37.049 256.448 37.2993C256.853 38.1161 257.136 38.9823 257.314 39.8671C257.608 41.3184 257.753 42.8436 257.464 44.306C257.329 44.985 257.095 45.6488 256.738 46.2536C256.556 46.5619 256.343 46.8544 256.103 47.1249C255.978 47.2654 255.845 47.3996 255.706 47.5281C255.627 47.6015 255.523 47.6658 255.456 47.7478C255.291 47.9477 255.256 47.7833 255.341 48.0769C255.46 48.4874 255.729 48.8924 255.894 49.2918C256.064 49.7035 256.217 50.1207 256.358 50.5421C256.642 51.3953 256.882 52.264 257.033 53.1476C257.321 54.8441 257.271 56.6518 256.422 58.2088C256.059 58.8748 255.538 59.4591 254.906 59.9136C254.597 60.1359 254.262 60.3275 253.911 60.4849C253.73 60.5659 253.5 60.6006 253.417 60.7656C253.329 60.9431 253.46 61.2954 253.49 61.4937C253.751 63.2192 253.882 65.0309 253.34 66.7219C252.84 68.2793 251.739 69.6544 250.31 70.5649C247.538 72.331 243.802 72.2314 240.889 70.8175C240.13 70.4489 239.42 69.9913 238.786 69.4515C237.172 71.5043 233.852 71.4394 231.494 70.8544C228.556 70.1258 226.199 68.1951 224.841 65.6583C222.983 67.7951 219.086 67.1018 217.798 64.7838C217.483 64.2164 217.296 63.5912 217.204 62.9584C217.155 62.6257 217.186 62.2901 217.15 61.96C217.103 61.5394 216.806 61.1307 216.635 60.7238C216.302 59.9319 216.096 59.1139 216.087 58.2598C216.082 57.8138 216.142 57.3792 216.187 56.9368C216.227 56.5386 216.11 56.1675 216.044 55.7745C216.797 55.8918 217.715 55.6997 218.425 55.4932C219.122 55.2906 219.774 54.757 220.266 54.2696C221.408 53.1378 222.105 51.6542 222.582 50.1776C223.629 46.9367 223.2 43.0484 219.751 41.2697C218.144 40.4412 213.33 40.4439 211.417 40.8534C209.405 41.284 207.123 45.4802 207.011 45.8746C206.942 46.1187 206.977 46.4209 206.739 46.5835C206.218 46.9411 205.358 46.3205 204.973 46.0142C204.31 45.4855 203.836 44.7821 203.426 44.0692C202.533 42.5159 201.812 40.8501 201.304 39.1497C200.911 37.8387 200.661 36.4868 200.148 35.2092C199.638 33.938 198.834 32.8017 197.583 32.0816C196.223 31.2981 194.664 30.8855 193.171 30.3932C191.691 29.9053 190.236 29.3089 189.089 28.2736C188.837 28.046 188.592 27.8041 188.389 27.5361C188.228 27.3245 188.07 26.9194 187.826 26.7852C187.446 26.5765 186.892 27.1193 186.563 27.3163C184.944 28.2887 183.592 29.6447 182.502 31.1261C181.418 32.5995 180.529 34.0171 179.806 35.6623C179.27 36.8825 178.935 38.4451 177.992 39.4451C177.572 39.8916 174.443 40.1617 173.429 39.7719C172.416 39.3821 171.28 38.3699 170.94 37.7356C170.591 37.0863 170.508 36.3731 170.657 35.6623C170.745 35.2442 170.923 34.8536 171.021 34.4428C171.103 34.0979 171.178 33.7717 171.356 33.4557C171.693 32.8567 172.268 32.4262 172.962 32.2462C172.24 31.6171 171.641 30.8644 171.227 30.0231C170.797 29.149 170.433 28.086 170.329 27.1266C170.245 26.3474 170.375 25.54 170.826 24.8704C171.3 24.1679 172.139 23.7096 172.864 23.2714C171.756 22.4517 170.807 21.4547 170.027 20.351C168.51 18.2046 167.572 15.499 168.342 12.94Z" fill="#191847"/>
<path fill-rule="evenodd" clip-rule="evenodd" d="M310.372 249.276H169.294C158.453 249.276 149.665 257.581 149.665 267.826V374.493C149.665 384.738 158.453 393.044 169.294 393.044H310.372C321.212 393.044 330 384.738 330 374.493V267.826C330 257.581 321.212 249.276 310.372 249.276ZM290.743 281.739C293.454 281.739 295.651 283.816 295.651 286.377V355.942C295.651 358.503 293.454 360.58 290.743 360.58H188.922C186.212 360.58 184.015 358.503 184.015 355.942V286.377C184.015 283.816 186.212 281.739 188.922 281.739H290.743Z" fill="#C5CFD6"/>
<path fill-rule="evenodd" clip-rule="evenodd" d="M61.9403 389.171C77.6586 356.292 89.0259 327.662 93.5887 312.557C101.401 286.693 107.345 263.934 108.847 255.435C112.429 235.168 81.2913 233.988 77.1755 244.06C70.9462 259.305 60.0712 309.394 47.004 385.052L61.9403 389.171ZM244.263 285.987C229.842 280.599 179.338 263.739 154.981 258.97C147.981 257.599 141.197 256.326 134.819 255.175C115.861 251.754 106.038 284.078 124.298 286.562C169.77 292.747 234.235 299.134 239.752 299.851C247.484 300.856 253.327 289.373 244.263 285.987Z" fill="#B28B67"/>
<path fill-rule="evenodd" clip-rule="evenodd" d="M123.183 246.28L201.19 208.75V200.58H191.913C116.445 218.755 77.8808 230.402 76.2206 235.522C76.2027 235.577 76.1864 235.633 76.1715 235.688C76.1335 235.735 76.0962 235.782 76.0595 235.83C61.1033 255.27 52.1462 350.176 49.2063 357.283L77.8656 361.323C88.8285 322.902 123.903 296.137 122.972 250.121C123.223 248.771 123.287 247.491 123.183 246.28Z" fill="#1F28CF"/>
<path fill-rule="evenodd" clip-rule="evenodd" d="M194.708 268.569C201.846 267.218 208.419 266.013 214.043 265.081C250.372 259.059 260.965 240.68 254.702 200.58H187.767C176.833 203.548 120.01 226.07 90.5272 238.048C71.0142 245.976 77.1654 274.556 88.2155 281.994C88.2756 282.45 88.4744 282.76 88.8285 282.899C148.271 306.183 195.295 293.966 211.004 297.869L218.27 276.207L194.708 268.569Z" fill="#2B44FF"/>
<path fill-rule="evenodd" clip-rule="evenodd" d="M239.332 282.544C243.227 282.896 245.992 283.448 247.627 284.202C249.615 285.119 252.355 286.769 255.846 289.154C254.721 291.334 244.611 310.925 225.515 347.929C219.384 346.993 216.954 344.782 218.227 341.295C219.499 337.808 220.525 334.897 221.305 332.562L222.517 299.304C222.54 298.664 223.108 298.163 223.785 298.185C223.797 298.186 223.808 298.186 223.82 298.187L229.233 298.508C232.309 296.155 234.338 294.027 235.321 292.122C236.12 290.574 236.561 288.133 236.646 284.796C236.678 283.516 237.803 282.503 239.158 282.534C239.216 282.535 239.274 282.538 239.332 282.544Z" fill="#E4E4E4"/>
<path fill-rule="evenodd" clip-rule="evenodd" d="M69.0937 383.075C70.4662 386.537 71.1524 389.128 71.1524 390.847C71.1524 392.938 70.7839 395.989 70.0468 400C67.4805 400 44.4165 400 0.854973 400C-0.943077 394.382 0.0948639 391.349 3.96879 390.901C7.84272 390.453 11.0609 390.049 13.6232 389.688L45.7829 376.138C46.4017 375.877 47.127 376.14 47.4029 376.725C47.4076 376.735 47.4122 376.745 47.4166 376.755L49.4838 381.494C53.07 383.076 55.9842 383.866 58.2264 383.866C60.0481 383.866 62.5638 383.171 65.7737 381.78C67.0055 381.247 68.4618 381.758 69.0265 382.922C69.0508 382.972 69.0732 383.023 69.0937 383.075Z" fill="#E4E4E4"/>
<path fill-rule="evenodd" clip-rule="evenodd" d="M129.983 182.171L95.231 214.212C85.1195 218.288 76.8346 222.789 70.3762 227.715C68.9239 229.371 67.3427 232.543 74.1761 231.124C81.0095 229.704 88.2648 228.501 89.5491 230.601C90.8334 232.702 87.0491 235.92 89.4226 238.669C91.005 240.501 96.3268 234.673 105.388 221.183L141.525 201.047L129.983 182.171ZM284.232 186.69L258.596 186.785C274.425 235.079 282.97 260.704 284.232 263.659C287.071 270.308 281.064 280.433 278.495 285.875C286.861 289.413 285.97 276.31 296.524 280.95C306.158 285.186 313.486 292.861 324.616 286.37C325.984 285.572 327.484 282.568 323.861 280.22C314.834 274.371 301.827 264.133 300.069 260.763C297.673 256.168 292.394 231.477 284.232 186.69Z" fill="#B28B67"/>
<path fill-rule="evenodd" clip-rule="evenodd" d="M211.378 85.023L200.77 83.3034C182.506 126.422 150.62 165.602 105.111 200.841L139.5 240.326C185.004 190.151 213.052 138.383 211.378 85.023Z" fill="#191847"/>
<path fill-rule="evenodd" clip-rule="evenodd" d="M257.621 211.015H163.16C185.044 160.725 195.987 118.005 195.987 82.8534L224.481 78.8409C246.874 112.88 253.199 154.788 257.621 211.015Z" fill="#DDE3E9"/>
<path fill-rule="evenodd" clip-rule="evenodd" d="M225.084 78.86C225.08 78.8536 225.077 78.8473 225.073 78.8409H223.213C220.987 78.9134 217.597 79.0439 213.043 79.2324L206.158 97.8286C205.429 120.502 201.176 166.194 193.398 234.906H255.319C255.157 239.651 254.889 244.441 254.516 249.276H300.558C293.671 175.843 268.52 119.031 225.107 78.8409L225.084 78.86Z" fill="#2F3676"/>
<path fill-rule="evenodd" clip-rule="evenodd" d="M251.229 174.184C249.467 203.766 245.055 224.159 237.993 235.362H255.303C256.061 214.079 254.703 193.686 251.229 174.184Z" fill="black" fill-opacity="0.1"/>
<path fill-rule="evenodd" clip-rule="evenodd" d="M241.537 199.421L211.004 186.005V199.421H241.537Z" fill="white" fill-opacity="0.2"/>
</svg>
