<svg width="35" height="36" viewBox="0 0 35 36" fill="none" xmlns="http://www.w3.org/2000/svg">
<path d="M28.9585 30V13.698L17.3752 6.49802L5.79183 13.698V30H11.5835V25.875C11.5835 24.2837 12.1937 22.7576 13.2798 21.6324C14.366 20.5072 15.8391 19.875 17.3752 19.875C18.9112 19.875 20.3843 20.5072 21.4705 21.6324C22.5566 22.7576 23.1668 24.2837 23.1668 25.875V30H28.9585ZM20.271 33V25.875C20.271 25.0794 19.9659 24.3163 19.4228 23.7537C18.8798 23.1911 18.1432 22.875 17.3752 22.875C16.6071 22.875 15.8706 23.1911 15.3275 23.7537C14.7844 24.3163 14.4793 25.0794 14.4793 25.875V33H5.79183C5.02381 33 4.28724 32.6839 3.74417 32.1213C3.20109 31.5587 2.896 30.7957 2.896 30V13.698C2.89599 13.18 3.02548 12.6707 3.27187 12.2199C3.51825 11.7691 3.87312 11.3921 4.30192 11.1255L15.8853 3.92551C16.3353 3.64576 16.8503 3.49799 17.3752 3.49799C17.9 3.49799 18.415 3.64576 18.8651 3.92551L30.4484 11.1255C30.8772 11.3921 31.2321 11.7691 31.4785 12.2199C31.7248 12.6707 31.8543 13.18 31.8543 13.698V30C31.8543 30.7957 31.5492 31.5587 31.0062 32.1213C30.4631 32.6839 29.7265 33 28.9585 33H20.271Z" fill="#AAAAAA"/>
</svg>
