<svg width="32" height="32" viewBox="0 0 32 32" fill="none" xmlns="http://www.w3.org/2000/svg">
<path d="M27 6H5C4.46957 6 3.96086 6.21071 3.58579 6.58579C3.21071 6.96086 3 7.46957 3 8V24C3 24.5304 3.21071 25.0391 3.58579 25.4142C3.96086 25.7893 4.46957 26 5 26H27C27.5304 26 28.0391 25.7893 28.4142 25.4142C28.7893 25.0391 29 24.5304 29 24V8C29 7.46957 28.7893 6.96086 28.4142 6.58579C28.0391 6.21071 27.5304 6 27 6ZM8 21C8 21.2652 7.89464 21.5196 7.70711 21.7071C7.51957 21.8946 7.26522 22 7 22C6.73478 22 6.48043 21.8946 6.29289 21.7071C6.10536 21.5196 6 21.2652 6 21V11C6 10.7348 6.10536 10.4804 6.29289 10.2929C6.48043 10.1054 6.73478 10 7 10C7.26522 10 7.51957 10.1054 7.70711 10.2929C7.89464 10.4804 8 10.7348 8 11V21ZM17.1625 16.0238L15.6175 16.5238L16.5725 17.8363C16.6497 17.9429 16.7052 18.0638 16.7357 18.1919C16.7662 18.3201 16.7712 18.453 16.7504 18.583C16.7296 18.7131 16.6833 18.8378 16.6143 18.95C16.5453 19.0621 16.4548 19.1596 16.3481 19.2369C16.2414 19.3141 16.1206 19.3696 15.9924 19.4001C15.8643 19.4306 15.7314 19.4356 15.6013 19.4148C15.4713 19.3939 15.3466 19.3477 15.2344 19.2787C15.1222 19.2096 15.0247 19.1192 14.9475 19.0125L14 17.7013L13.0463 19.015C12.8903 19.2305 12.6551 19.3752 12.3924 19.4173C12.1297 19.4593 11.8611 19.3954 11.6456 19.2394C11.4301 19.0834 11.2854 18.8482 11.2434 18.5855C11.2013 18.3229 11.2653 18.0542 11.4213 17.8388L12.3763 16.5263L10.8313 16.0263C10.7064 15.9852 10.5909 15.92 10.4912 15.8343C10.3916 15.7486 10.3098 15.6441 10.2506 15.5268C10.1309 15.29 10.1102 15.0152 10.1931 14.7631C10.2342 14.6383 10.2994 14.5228 10.3851 14.4231C10.4708 14.3235 10.5752 14.2417 10.6925 14.1825C10.9294 14.0628 11.2041 14.0421 11.4563 14.125L13 14.625V13C13 12.7348 13.1054 12.4804 13.2929 12.2929C13.4804 12.1054 13.7348 12 14 12C14.2652 12 14.5196 12.1054 14.7071 12.2929C14.8946 12.4804 15 12.7348 15 13V14.625L16.5438 14.125C16.6686 14.084 16.8003 14.0679 16.9313 14.0778C17.0624 14.0876 17.1902 14.1232 17.3075 14.1825C17.4248 14.2417 17.5292 14.3235 17.6149 14.4231C17.7006 14.5228 17.7658 14.6383 17.8069 14.7631C17.8479 14.888 17.864 15.0197 17.8541 15.1507C17.8442 15.2817 17.8087 15.4096 17.7494 15.5268C17.6902 15.6441 17.6084 15.7486 17.5088 15.8343C17.4091 15.92 17.2936 15.9852 17.1688 16.0263L17.1625 16.0238ZM26.1625 16.0238L24.6175 16.5238L25.5725 17.8363C25.6497 17.9429 25.7052 18.0638 25.7357 18.1919C25.7662 18.3201 25.7712 18.453 25.7504 18.583C25.7296 18.7131 25.6833 18.8378 25.6143 18.95C25.5453 19.0621 25.4548 19.1596 25.3481 19.2369C25.2414 19.3141 25.1206 19.3696 24.9924 19.4001C24.8643 19.4306 24.7314 19.4356 24.6013 19.4148C24.4713 19.3939 24.3466 19.3477 24.2344 19.2787C24.1222 19.2096 24.0247 19.1192 23.9475 19.0125L23 17.7013L22.0462 19.015C21.8903 19.2305 21.6551 19.3752 21.3924 19.4173C21.1297 19.4593 20.8611 19.3954 20.6456 19.2394C20.4301 19.0834 20.2854 18.8482 20.2434 18.5855C20.2013 18.3229 20.2653 18.0542 20.4212 17.8388L21.3762 16.5263L19.8312 16.0263C19.7064 15.9852 19.5909 15.92 19.4912 15.8343C19.3916 15.7486 19.3098 15.6441 19.2506 15.5268C19.1309 15.29 19.1102 15.0152 19.1931 14.7631C19.2342 14.6383 19.2994 14.5228 19.3851 14.4231C19.4708 14.3235 19.5752 14.2417 19.6925 14.1825C19.9294 14.0628 20.2041 14.0421 20.4562 14.125L22 14.625V13C22 12.7348 22.1054 12.4804 22.2929 12.2929C22.4804 12.1054 22.7348 12 23 12C23.2652 12 23.5196 12.1054 23.7071 12.2929C23.8946 12.4804 24 12.7348 24 13V14.625L25.5438 14.125C25.6686 14.084 25.8003 14.0679 25.9313 14.0778C26.0624 14.0876 26.1902 14.1232 26.3075 14.1825C26.4248 14.2417 26.5292 14.3235 26.6149 14.4231C26.7006 14.5228 26.7658 14.6383 26.8069 14.7631C26.8479 14.888 26.864 15.0197 26.8541 15.1507C26.8442 15.2817 26.8087 15.4096 26.7494 15.5268C26.6902 15.6441 26.6084 15.7486 26.5088 15.8343C26.4091 15.92 26.2936 15.9852 26.1688 16.0263L26.1625 16.0238Z" fill="#666666"/>
</svg>
