<svg width="80" height="48" viewBox="0 0 80 48" fill="none" xmlns="http://www.w3.org/2000/svg">
<path d="M0 8C0 3.58172 3.58172 0 8 0H72C76.4183 0 80 3.58172 80 8V32C80 36.4183 76.4183 40 72 40H49.4299C45.2407 40 42.4617 43.4917 40.6944 47.2899C40.4896 47.7303 40.2585 48 40 48C39.7415 48 39.5104 47.7303 39.3056 47.2899C37.5383 43.4917 34.7593 40 30.5701 40H8C3.58172 40 0 36.4183 0 32V8Z" fill="#F1F7F7"/>
<path d="M0.5 8C0.5 3.85786 3.85786 0.5 8 0.5H72C76.1421 0.5 79.5 3.85786 79.5 8V32C79.5 36.1421 76.1421 39.5 72 39.5H49.4299C44.922 39.5 42.0202 43.2554 40.2411 47.079C40.1494 47.2762 40.0673 47.3996 40.0039 47.4668C40.0025 47.4682 40.0013 47.4695 40 47.4708C39.9987 47.4695 39.9975 47.4682 39.9961 47.4668C39.9327 47.3996 39.8506 47.2762 39.7589 47.079C37.9798 43.2554 35.078 39.5 30.5701 39.5H8C3.85786 39.5 0.5 36.1421 0.5 32V8ZM39.9562 47.5084C39.9562 47.5083 39.9569 47.5079 39.9584 47.5072C39.9569 47.5081 39.9562 47.5084 39.9562 47.5084ZM40.0416 47.5072C40.043 47.5078 40.0438 47.5083 40.0438 47.5083C40.0439 47.5084 40.0432 47.5081 40.0416 47.5072Z" stroke="#068FFF" stroke-opacity="0.6"/>
</svg>
